# xmcd
#
# Track frame offsets:
#	150
#	14492
#	31532
#	55584
#	78471
#	92702
#	111084
#	121783
#	139061
#	150701
#
# Disc length: 2491 seconds
# Revision: 0
# Processed by: cddbd v1.5.2PL0 Copyright (c) Steve Scherf et al.
# Submitted via: dBpowerAMP V12.0
#
DISCID=6f09b90a
DTITLE=Eye of the Enemy - Weight of Redemption
DYEAR=2010
DGENRE=Metal
TTITLE0=Peace
TTITLE1=Weight of Redemption
TTITLE2=Genocide
TTITLE3=Facade
TTITLE4=A Reason for Treason
TTITLE5=Theocracy
TTITLE6=Disarray
TTITLE7=Burn the World
TTITLE8=Violent Rapture
TTITLE9=The Paradigm of Penance
EXTD=
EXTT0=
EXTT1=
EXTT2=
EXTT3=
EXTT4=
EXTT5=
EXTT6=
EXTT7=
EXTT8=
EXTT9=
PLAYORDER=
